<svg xmlns="http://www.w3.org/2000/svg" xmlns:xlink="http://www.w3.org/1999/xlink" contentStyleType="text/css" data-diagram-type="CLASS" height="667px" preserveAspectRatio="none" style="width:691px;height:667px;background:#FFFFFF;" version="1.1" viewBox="0 0 691 667" width="691px" zoomAndPan="magnify"><defs/><g><!--cluster via_ellipsoid--><g id="cluster_via_ellipsoid"><path d="M8.5,6.602 L94.7212,6.602 A3.75,3.75 0 0 1 97.2212,9.102 L104.2212,31.6699 L263.5,31.6699 A2.5,2.5 0 0 1 266,34.1699 L266,461.982 A2.5,2.5 0 0 1 263.5,464.482 L8.5,464.482 A2.5,2.5 0 0 1 6,461.982 L6,9.102 A2.5,2.5 0 0 1 8.5,6.602 " fill="#FFFFFF" fill-opacity="0.00000" style="stroke:#000000;stroke-width:1.5;"/><line style="stroke:#000000;stroke-width:1.5;" x1="6" x2="104.2212" y1="31.6699" y2="31.6699"/><text fill="#000000" font-family="sans-serif" font-size="14" font-weight="bold" lengthAdjust="spacing" textLength="85.2212" x="10" y="23.5679">via_ellipsoid</text></g><!--cluster via_sphere--><g id="cluster_via_sphere"><path d="M429.5,54.272 L505.2107,54.272 A3.75,3.75 0 0 1 507.7107,56.772 L514.7107,79.3399 L542.5,79.3399 A2.5,2.5 0 0 1 545,81.8399 L545,191.902 A2.5,2.5 0 0 1 542.5,194.402 L429.5,194.402 A2.5,2.5 0 0 1 427,191.902 L427,56.772 A2.5,2.5 0 0 1 429.5,54.272 " fill="#FFFFFF" fill-opacity="0.00000" style="stroke:#000000;stroke-width:1.5;"/><line style="stroke:#000000;stroke-width:1.5;" x1="427" x2="514.7107" y1="79.3399" y2="79.3399"/><text fill="#000000" font-family="sans-serif" font-size="14" font-weight="bold" lengthAdjust="spacing" textLength="74.7107" x="431" y="71.2379">via_sphere</text></g><!--cluster via_angle--><g id="cluster_via_angle"><path d="M342.5,286.212 L408.8553,286.212 A3.75,3.75 0 0 1 411.3553,288.712 L418.3553,311.2799 L681.5,311.2799 A2.5,2.5 0 0 1 684,313.7799 L684,423.842 A2.5,2.5 0 0 1 681.5,426.342 L342.5,426.342 A2.5,2.5 0 0 1 340,423.842 L340,288.712 A2.5,2.5 0 0 1 342.5,286.212 " fill="#FFFFFF" fill-opacity="0.00000" style="stroke:#000000;stroke-width:1.5;"/><line style="stroke:#000000;stroke-width:1.5;" x1="340" x2="418.3553" y1="311.2799" y2="311.2799"/><text fill="#000000" font-family="sans-serif" font-size="14" font-weight="bold" lengthAdjust="spacing" textLength="65.3553" x="344" y="303.1779">via_angle</text></g><!--cluster via_units--><g id="cluster_via_units"><path d="M142.5,488.482 L204.9073,488.482 A3.75,3.75 0 0 1 207.4073,490.982 L214.4073,513.5499 L471.5,513.5499 A2.5,2.5 0 0 1 474,516.0499 L474,657.982 A2.5,2.5 0 0 1 471.5,660.482 L142.5,660.482 A2.5,2.5 0 0 1 140,657.982 L140,490.982 A2.5,2.5 0 0 1 142.5,488.482 " fill="#FFFFFF" fill-opacity="0.00000" style="stroke:#000000;stroke-width:1.5;"/><line style="stroke:#000000;stroke-width:1.5;" x1="140" x2="214.4073" y1="513.5499" y2="513.5499"/><text fill="#000000" font-family="sans-serif" font-size="14" font-weight="bold" lengthAdjust="spacing" textLength="61.4073" x="144" y="505.4479">via_units</text></g><!--cluster si--><g id="cluster_si"><path d="M166.5,534.482 L178.693,534.482 A3.75,3.75 0 0 1 181.193,536.982 L188.193,559.5499 L271.5,559.5499 A2.5,2.5 0 0 1 274,562.0499 L274,633.982 A2.5,2.5 0 0 1 271.5,636.482 L166.5,636.482 A2.5,2.5 0 0 1 164,633.982 L164,536.982 A2.5,2.5 0 0 1 166.5,534.482 " fill="#FFFFFF" fill-opacity="0.00000" style="stroke:#000000;stroke-width:1.5;"/><line style="stroke:#000000;stroke-width:1.5;" x1="164" x2="188.193" y1="559.5499" y2="559.5499"/><text fill="#000000" font-family="sans-serif" font-size="14" font-weight="bold" lengthAdjust="spacing" textLength="11.193" x="168" y="551.4479">si</text></g><!--cluster non_si--><g id="cluster_non_si"><path d="M300.5,534.482 L346.4328,534.482 A3.75,3.75 0 0 1 348.9328,536.982 L355.9328,559.5499 L447.5,559.5499 A2.5,2.5 0 0 1 450,562.0499 L450,633.982 A2.5,2.5 0 0 1 447.5,636.482 L300.5,636.482 A2.5,2.5 0 0 1 298,633.982 L298,536.982 A2.5,2.5 0 0 1 300.5,534.482 " fill="#FFFFFF" fill-opacity="0.00000" style="stroke:#000000;stroke-width:1.5;"/><line style="stroke:#000000;stroke-width:1.5;" x1="298" x2="355.9328" y1="559.5499" y2="559.5499"/><text fill="#000000" font-family="sans-serif" font-size="14" font-weight="bold" lengthAdjust="spacing" textLength="44.9328" x="302" y="551.4479">non_si</text></g><!--class GeodesicSegment--><g id="elem_GeodesicSegment"><rect codeLine="10" fill="#F1F1F1" height="181.4754" id="GeodesicSegment" rx="2.5" ry="2.5" style="stroke:#181818;stroke-width:0.5;" width="178.7254" x="71.64" y="44.602"/><ellipse cx="99.1229" cy="60.602" fill="#ADD1B2" rx="11" ry="11" style="stroke:#181818;stroke-width:1;"/><path d="M99.2323,56.1332 Q98.3104,56.1332 97.5761,56.4457 Q96.8573,56.7582 96.3573,57.352 Q95.8573,57.9301 95.5761,58.8051 Q95.3104,59.6801 95.3104,60.7739 Q95.3104,62.2114 95.7479,63.2582 Q96.2011,64.3051 97.0448,64.852 Q97.9042,65.3989 99.2167,65.3989 Q99.9979,65.3989 100.6854,65.2739 Q101.3886,65.1332 102.3886,64.8207 L102.3886,66.6957 Q101.5292,67.0239 100.7636,67.1489 Q100.0136,67.2739 98.9979,67.2739 Q97.0761,67.2739 95.7636,66.477 Q94.4667,65.6645 93.8104,64.1957 Q93.1542,62.7114 93.1542,60.7426 Q93.1542,59.3207 93.5448,58.1489 Q93.9511,56.9614 94.7323,56.0864 Q95.5136,55.2114 96.6542,54.7426 Q97.7948,54.2582 99.2636,54.2582 Q100.2167,54.2582 101.1073,54.4614 Q102.0136,54.6489 102.9511,55.1176 L102.1229,56.8989 Q101.3417,56.5239 100.6854,56.3364 Q100.0292,56.1332 99.2323,56.1332 Z " fill="#000000"/><text fill="#000000" font-family="sans-serif" font-size="14" lengthAdjust="spacing" textLength="118.9855" x="115.8969" y="66.034">GeodesicSegment</text><line style="stroke:#181818;stroke-width:0.5;" x1="72.64" x2="249.3654" y1="76.602" y2="76.602"/><rect fill="#FFFFFF" fill-opacity="0.00000" height="6" style="stroke:#C82930;stroke-width:1;" width="6" x="79.64" y="88.6359"/><text fill="#000000" font-family="sans-serif" font-size="14" lengthAdjust="spacing" textLength="29.4139" x="91.64" y="95.5679">beta</text><rect fill="#FFFFFF" fill-opacity="0.00000" height="6" style="stroke:#C82930;stroke-width:1;" width="6" x="79.64" y="107.7039"/><text fill="#000000" font-family="sans-serif" font-size="14" lengthAdjust="spacing" textLength="20.7339" x="91.64" y="114.6358">lon</text><rect fill="#FFFFFF" fill-opacity="0.00000" height="6" style="stroke:#C82930;stroke-width:1;" width="6" x="79.64" y="126.7718"/><text fill="#000000" font-family="sans-serif" font-size="14" lengthAdjust="spacing" textLength="18.0459" x="91.64" y="133.7038">azi</text><rect fill="#FFFFFF" fill-opacity="0.00000" height="6" style="stroke:#C82930;stroke-width:1;" width="6" x="79.64" y="145.8397"/><text fill="#000000" font-family="sans-serif" font-size="14" lengthAdjust="spacing" textLength="69.0477" x="91.64" y="152.7717">arc_length</text><rect fill="#FFFFFF" fill-opacity="0.00000" height="6" style="stroke:#C82930;stroke-width:1;" width="6" x="79.64" y="164.9076"/><text fill="#000000" font-family="sans-serif" font-size="14" lengthAdjust="spacing" textLength="54.7398" x="91.64" y="171.8396">ellipsoid</text><line style="stroke:#181818;stroke-width:0.5;" x1="72.64" x2="249.3654" y1="179.9416" y2="179.9416"/><ellipse cx="82.64" cy="194.9755" fill="#84BE84" rx="3" ry="3" style="stroke:#038048;stroke-width:1;"/><text fill="#000000" font-family="sans-serif" font-size="14" lengthAdjust="spacing" textLength="60.4798" x="91.64" y="198.9075">lat_long()</text><ellipse cx="82.64" cy="214.0434" fill="#84BE84" rx="3" ry="3" style="stroke:#038048;stroke-width:1;"/><text fill="#000000" font-family="sans-serif" font-size="14" lengthAdjust="spacing" textLength="152.7254" x="91.64" y="217.9754">calculate_atd_and_xtd()</text></g><!--class Ellipsoid--><g id="elem_Ellipsoid"><rect codeLine="20" fill="#F1F1F1" height="162.4075" id="Ellipsoid" rx="2.5" ry="2.5" style="stroke:#181818;stroke-width:0.5;" width="227.4032" x="22.3" y="286.072"/><ellipse cx="104.4377" cy="302.072" fill="#ADD1B2" rx="11" ry="11" style="stroke:#181818;stroke-width:1;"/><path d="M104.5471,297.6032 Q103.6252,297.6032 102.8908,297.9157 Q102.1721,298.2282 101.6721,298.822 Q101.1721,299.4001 100.8908,300.2751 Q100.6252,301.1501 100.6252,302.2439 Q100.6252,303.6814 101.0627,304.7282 Q101.5158,305.7751 102.3596,306.322 Q103.219,306.8689 104.5315,306.8689 Q105.3127,306.8689 106.0002,306.7439 Q106.7033,306.6032 107.7033,306.2907 L107.7033,308.1657 Q106.844,308.4939 106.0783,308.6189 Q105.3283,308.7439 104.3127,308.7439 Q102.3908,308.7439 101.0783,307.947 Q99.7815,307.1345 99.1252,305.6657 Q98.469,304.1814 98.469,302.2126 Q98.469,300.7907 98.8596,299.6189 Q99.2658,298.4314 100.0471,297.5564 Q100.8283,296.6814 101.969,296.2126 Q103.1096,295.7282 104.5783,295.7282 Q105.5315,295.7282 106.4221,295.9314 Q107.3283,296.1189 108.2658,296.5876 L107.4377,298.3689 Q106.6565,297.9939 106.0002,297.8064 Q105.344,297.6032 104.5471,297.6032 Z " fill="#000000"/><text fill="#000000" font-family="sans-serif" font-size="14" lengthAdjust="spacing" textLength="54.6278" x="124.9377" y="307.504">Ellipsoid</text><line style="stroke:#181818;stroke-width:0.5;" x1="23.3" x2="248.7032" y1="318.072" y2="318.072"/><rect fill="#FFFFFF" fill-opacity="0.00000" height="6" style="stroke:#C82930;stroke-width:1;" width="6" x="30.3" y="330.1059"/><text fill="#000000" font-family="sans-serif" font-size="14" lengthAdjust="spacing" textLength="7.854" x="42.3" y="337.0379">a</text><rect fill="#FFFFFF" fill-opacity="0.00000" height="6" style="stroke:#C82930;stroke-width:1;" width="6" x="30.3" y="349.1739"/><text fill="#000000" font-family="sans-serif" font-size="14" lengthAdjust="spacing" textLength="4.816" x="42.3" y="356.1058">f</text><line style="stroke:#181818;stroke-width:0.5;" x1="23.3" x2="248.7032" y1="364.2078" y2="364.2078"/><ellipse cx="33.3" cy="379.2418" fill="#84BE84" rx="3" ry="3" style="stroke:#038048;stroke-width:1;"/><text fill="#000000" font-family="sans-serif" font-size="14" lengthAdjust="spacing" textLength="17.0099" x="42.3" y="383.1738">b()</text><ellipse cx="33.3" cy="398.3097" fill="#84BE84" rx="3" ry="3" style="stroke:#038048;stroke-width:1;"/><text fill="#000000" font-family="sans-serif" font-size="14" lengthAdjust="spacing" textLength="91.3776" x="42.3" y="402.2417">one_minus_f()</text><ellipse cx="33.3" cy="417.3776" fill="#84BE84" rx="3" ry="3" style="stroke:#038048;stroke-width:1;"/><text fill="#000000" font-family="sans-serif" font-size="14" lengthAdjust="spacing" textLength="201.4032" x="42.3" y="421.3096">calculate_parametric_latitude()</text><ellipse cx="33.3" cy="436.4455" fill="#84BE84" rx="3" ry="3" style="stroke:#038048;stroke-width:1;"/><text fill="#000000" font-family="sans-serif" font-size="14" lengthAdjust="spacing" textLength="186.0173" x="42.3" y="440.3775">calculate_geodetic_latitude()</text></g><!--class LatLong--><g id="elem_LatLong"><rect codeLine="33" fill="#F1F1F1" height="86.1358" id="LatLong" rx="2.5" ry="2.5" style="stroke:#181818;stroke-width:0.5;" width="85.3118" x="443.34" y="92.272"/><ellipse cx="458.34" cy="108.272" fill="#ADD1B2" rx="11" ry="11" style="stroke:#181818;stroke-width:1;"/><path d="M458.4494,103.8032 Q457.5275,103.8032 456.7931,104.1157 Q456.0744,104.4282 455.5744,105.022 Q455.0744,105.6001 454.7931,106.4751 Q454.5275,107.3501 454.5275,108.4439 Q454.5275,109.8814 454.965,110.9282 Q455.4181,111.9751 456.2619,112.522 Q457.1213,113.0689 458.4338,113.0689 Q459.215,113.0689 459.9025,112.9439 Q460.6056,112.8032 461.6056,112.4907 L461.6056,114.3657 Q460.7463,114.6939 459.9806,114.8189 Q459.2306,114.9439 458.215,114.9439 Q456.2931,114.9439 454.9806,114.147 Q453.6838,113.3345 453.0275,111.8657 Q452.3713,110.3814 452.3713,108.4126 Q452.3713,106.9907 452.7619,105.8189 Q453.1681,104.6314 453.9494,103.7564 Q454.7306,102.8814 455.8713,102.4126 Q457.0119,101.9282 458.4806,101.9282 Q459.4338,101.9282 460.3244,102.1314 Q461.2306,102.3189 462.1681,102.7876 L461.34,104.5689 Q460.5588,104.1939 459.9025,104.0064 Q459.2463,103.8032 458.4494,103.8032 Z " fill="#000000"/><text fill="#000000" font-family="sans-serif" font-size="14" lengthAdjust="spacing" textLength="53.3118" x="472.34" y="113.704">LatLong</text><line style="stroke:#181818;stroke-width:0.5;" x1="444.34" x2="527.6518" y1="124.272" y2="124.272"/><rect fill="#FFFFFF" fill-opacity="0.00000" height="6" style="stroke:#C82930;stroke-width:1;" width="6" x="451.34" y="136.3059"/><text fill="#000000" font-family="sans-serif" font-size="14" lengthAdjust="spacing" textLength="16.5199" x="463.34" y="143.2379">lat</text><rect fill="#FFFFFF" fill-opacity="0.00000" height="6" style="stroke:#C82930;stroke-width:1;" width="6" x="451.34" y="155.3739"/><text fill="#000000" font-family="sans-serif" font-size="14" lengthAdjust="spacing" textLength="20.7339" x="463.34" y="162.3058">lon</text><line style="stroke:#181818;stroke-width:0.5;" x1="444.34" x2="527.6518" y1="170.4078" y2="170.4078"/></g><!--class Angle--><g id="elem_Angle"><rect codeLine="41" fill="#F1F1F1" height="86.1358" id="Angle" rx="2.5" ry="2.5" style="stroke:#181818;stroke-width:0.5;" width="69.7159" x="356.14" y="324.212"/><ellipse cx="371.14" cy="340.212" fill="#ADD1B2" rx="11" ry="11" style="stroke:#181818;stroke-width:1;"/><path d="M371.2494,335.7432 Q370.3275,335.7432 369.5931,336.0557 Q368.8744,336.3682 368.3744,336.962 Q367.8744,337.5401 367.5931,338.4151 Q367.3275,339.2901 367.3275,340.3839 Q367.3275,341.8214 367.765,342.8682 Q368.2181,343.9151 369.0619,344.462 Q369.9213,345.0089 371.2338,345.0089 Q372.015,345.0089 372.7025,344.8839 Q373.4056,344.7432 374.4056,344.4307 L374.4056,346.3057 Q373.5463,346.6339 372.7806,346.7589 Q372.0306,346.8839 371.015,346.8839 Q369.0931,346.8839 367.7806,346.087 Q366.4838,345.2745 365.8275,343.8057 Q365.1713,342.3214 365.1713,340.3526 Q365.1713,338.9307 365.5619,337.7589 Q365.9681,336.5714 366.7494,335.6964 Q367.5306,334.8214 368.6713,334.3526 Q369.8119,333.8682 371.2806,333.8682 Q372.2338,333.8682 373.1244,334.0714 Q374.0306,334.2589 374.9681,334.7276 L374.14,336.5089 Q373.3588,336.1339 372.7025,335.9464 Q372.0463,335.7432 371.2494,335.7432 Z " fill="#000000"/><text fill="#000000" font-family="sans-serif" font-size="14" lengthAdjust="spacing" textLength="37.7159" x="385.14" y="345.644">Angle</text><line style="stroke:#181818;stroke-width:0.5;" x1="357.14" x2="424.8559" y1="356.212" y2="356.212"/><rect fill="#FFFFFF" fill-opacity="0.00000" height="6" style="stroke:#C82930;stroke-width:1;" width="6" x="364.14" y="368.2459"/><text fill="#000000" font-family="sans-serif" font-size="14" lengthAdjust="spacing" textLength="18.9699" x="376.14" y="375.1779">sin</text><rect fill="#FFFFFF" fill-opacity="0.00000" height="6" style="stroke:#C82930;stroke-width:1;" width="6" x="364.14" y="387.3139"/><text fill="#000000" font-family="sans-serif" font-size="14" lengthAdjust="spacing" textLength="21.8959" x="376.14" y="394.2458">cos</text><line style="stroke:#181818;stroke-width:0.5;" x1="357.14" x2="424.8559" y1="402.3478" y2="402.3478"/></g><!--class Degrees--><g id="elem_Degrees"><rect fill="#F1F1F1" height="48" id="Degrees" rx="2.5" ry="2.5" style="stroke:#181818;stroke-width:0.5;" width="87.0058" x="580.5" y="343.282"/><ellipse cx="595.5" cy="359.282" fill="#ADD1B2" rx="11" ry="11" style="stroke:#181818;stroke-width:1;"/><path d="M595.6094,354.8132 Q594.6875,354.8132 593.9531,355.1257 Q593.2344,355.4382 592.7344,356.032 Q592.2344,356.6101 591.9531,357.4851 Q591.6875,358.3601 591.6875,359.4539 Q591.6875,360.8914 592.125,361.9382 Q592.5781,362.9851 593.4219,363.532 Q594.2813,364.0789 595.5938,364.0789 Q596.375,364.0789 597.0625,363.9539 Q597.7656,363.8132 598.7656,363.5007 L598.7656,365.3757 Q597.9063,365.7039 597.1406,365.8289 Q596.3906,365.9539 595.375,365.9539 Q593.4531,365.9539 592.1406,365.157 Q590.8438,364.3445 590.1875,362.8757 Q589.5313,361.3914 589.5313,359.4226 Q589.5313,358.0007 589.9219,356.8289 Q590.3281,355.6414 591.1094,354.7664 Q591.8906,353.8914 593.0313,353.4226 Q594.1719,352.9382 595.6406,352.9382 Q596.5938,352.9382 597.4844,353.1414 Q598.3906,353.3289 599.3281,353.7976 L598.5,355.5789 Q597.7188,355.2039 597.0625,355.0164 Q596.4063,354.8132 595.6094,354.8132 Z " fill="#000000"/><text fill="#000000" font-family="sans-serif" font-size="14" lengthAdjust="spacing" textLength="55.0058" x="609.5" y="364.714">Degrees</text><line style="stroke:#181818;stroke-width:0.5;" x1="581.5" x2="666.5058" y1="375.282" y2="375.282"/><line style="stroke:#181818;stroke-width:0.5;" x1="581.5" x2="666.5058" y1="383.282" y2="383.282"/></g><!--class Radians--><g id="elem_Radians"><rect fill="#F1F1F1" height="48" id="Radians" rx="2.5" ry="2.5" style="stroke:#181818;stroke-width:0.5;" width="83.9958" x="461" y="343.282"/><ellipse cx="476" cy="359.282" fill="#ADD1B2" rx="11" ry="11" style="stroke:#181818;stroke-width:1;"/><path d="M476.1094,354.8132 Q475.1875,354.8132 474.4531,355.1257 Q473.7344,355.4382 473.2344,356.032 Q472.7344,356.6101 472.4531,357.4851 Q472.1875,358.3601 472.1875,359.4539 Q472.1875,360.8914 472.625,361.9382 Q473.0781,362.9851 473.9219,363.532 Q474.7813,364.0789 476.0938,364.0789 Q476.875,364.0789 477.5625,363.9539 Q478.2656,363.8132 479.2656,363.5007 L479.2656,365.3757 Q478.4063,365.7039 477.6406,365.8289 Q476.8906,365.9539 475.875,365.9539 Q473.9531,365.9539 472.6406,365.157 Q471.3438,364.3445 470.6875,362.8757 Q470.0313,361.3914 470.0313,359.4226 Q470.0313,358.0007 470.4219,356.8289 Q470.8281,355.6414 471.6094,354.7664 Q472.3906,353.8914 473.5313,353.4226 Q474.6719,352.9382 476.1406,352.9382 Q477.0938,352.9382 477.9844,353.1414 Q478.8906,353.3289 479.8281,353.7976 L479,355.5789 Q478.2188,355.2039 477.5625,355.0164 Q476.9063,354.8132 476.1094,354.8132 Z " fill="#000000"/><text fill="#000000" font-family="sans-serif" font-size="14" lengthAdjust="spacing" textLength="51.9958" x="490" y="364.714">Radians</text><line style="stroke:#181818;stroke-width:0.5;" x1="462" x2="543.9958" y1="375.282" y2="375.282"/><line style="stroke:#181818;stroke-width:0.5;" x1="462" x2="543.9958" y1="383.282" y2="383.282"/></g><!--class Metres--><g id="elem_Metres"><rect codeLine="52" fill="#F1F1F1" height="48" id="Metres" rx="2.5" ry="2.5" style="stroke:#181818;stroke-width:0.5;" width="78.0318" x="179.98" y="572.482"/><ellipse cx="194.98" cy="588.482" fill="#ADD1B2" rx="11" ry="11" style="stroke:#181818;stroke-width:1;"/><path d="M195.0894,584.0132 Q194.1675,584.0132 193.4331,584.3257 Q192.7144,584.6382 192.2144,585.232 Q191.7144,585.8101 191.4331,586.6851 Q191.1675,587.5601 191.1675,588.6539 Q191.1675,590.0914 191.605,591.1382 Q192.0581,592.1851 192.9019,592.732 Q193.7613,593.2789 195.0738,593.2789 Q195.855,593.2789 196.5425,593.1539 Q197.2456,593.0132 198.2456,592.7007 L198.2456,594.5757 Q197.3863,594.9039 196.6206,595.0289 Q195.8706,595.1539 194.855,595.1539 Q192.9331,595.1539 191.6206,594.357 Q190.3238,593.5445 189.6675,592.0757 Q189.0113,590.5914 189.0113,588.6226 Q189.0113,587.2007 189.4019,586.0289 Q189.8081,584.8414 190.5894,583.9664 Q191.3706,583.0914 192.5113,582.6226 Q193.6519,582.1382 195.1206,582.1382 Q196.0738,582.1382 196.9644,582.3414 Q197.8706,582.5289 198.8081,582.9976 L197.98,584.7789 Q197.1988,584.4039 196.5425,584.2164 Q195.8863,584.0132 195.0894,584.0132 Z " fill="#000000"/><text fill="#000000" font-family="sans-serif" font-size="14" lengthAdjust="spacing" textLength="46.0318" x="208.98" y="593.914">Metres</text><line style="stroke:#181818;stroke-width:0.5;" x1="180.98" x2="257.0118" y1="604.482" y2="604.482"/><line style="stroke:#181818;stroke-width:0.5;" x1="180.98" x2="257.0118" y1="612.482" y2="612.482"/></g><!--class NauticalMiles--><g id="elem_NauticalMiles"><rect codeLine="57" fill="#F1F1F1" height="48" id="NauticalMiles" rx="2.5" ry="2.5" style="stroke:#181818;stroke-width:0.5;" width="120.5217" x="313.74" y="572.482"/><ellipse cx="328.74" cy="588.482" fill="#ADD1B2" rx="11" ry="11" style="stroke:#181818;stroke-width:1;"/><path d="M328.8494,584.0132 Q327.9275,584.0132 327.1931,584.3257 Q326.4744,584.6382 325.9744,585.232 Q325.4744,585.8101 325.1931,586.6851 Q324.9275,587.5601 324.9275,588.6539 Q324.9275,590.0914 325.365,591.1382 Q325.8181,592.1851 326.6619,592.732 Q327.5213,593.2789 328.8338,593.2789 Q329.615,593.2789 330.3025,593.1539 Q331.0056,593.0132 332.0056,592.7007 L332.0056,594.5757 Q331.1463,594.9039 330.3806,595.0289 Q329.6306,595.1539 328.615,595.1539 Q326.6931,595.1539 325.3806,594.357 Q324.0838,593.5445 323.4275,592.0757 Q322.7713,590.5914 322.7713,588.6226 Q322.7713,587.2007 323.1619,586.0289 Q323.5681,584.8414 324.3494,583.9664 Q325.1306,583.0914 326.2713,582.6226 Q327.4119,582.1382 328.8806,582.1382 Q329.8338,582.1382 330.7244,582.3414 Q331.6306,582.5289 332.5681,582.9976 L331.74,584.7789 Q330.9588,584.4039 330.3025,584.2164 Q329.6463,584.0132 328.8494,584.0132 Z " fill="#000000"/><text fill="#000000" font-family="sans-serif" font-size="14" lengthAdjust="spacing" textLength="88.5217" x="342.74" y="593.914">NauticalMiles</text><line style="stroke:#181818;stroke-width:0.5;" x1="314.74" x2="433.2617" y1="604.482" y2="604.482"/><line style="stroke:#181818;stroke-width:0.5;" x1="314.74" x2="433.2617" y1="612.482" y2="612.482"/></g><!--reverse link GeodesicSegment to Ellipsoid--><g id="link_GeodesicSegment_Ellipsoid"><path codeLine="29" d="M149.8937,238.4818 C147.7737,257.9918 146.84,266.562 144.76,285.662 " fill="#FFFFFF" fill-opacity="0.00000" id="GeodesicSegment-backto-Ellipsoid" style="stroke:#181818;stroke-width:1;"/><polygon fill="#FFFFFF" fill-opacity="0.00000" points="151.19,226.552,146.5652,232.0848,149.8937,238.4818,154.5184,232.949,151.19,226.552" style="stroke:#181818;stroke-width:1;"/></g><!--link Angle to Degrees--><g id="link_Angle_Degrees"><path codeLine="46" d="M404.89,323.822 C415.77,297.772 433.78,266.922 461.5,252.142 C494.05,234.792 511.84,235.002 544.5,252.142 C580.85,271.222 603.85,315.282 615.29,343.032 " fill="#FFFFFF" fill-opacity="0.00000" id="Angle-Degrees" style="stroke:#181818;stroke-width:1;stroke-dasharray:7.0,7.0;"/></g><!--link GeodesicSegment to LatLong--><g id="link_GeodesicSegment_LatLong"><path codeLine="63" d="M250.82,135.332 C314.97,135.332 379.13,135.332 443.28,135.332 " fill="#FFFFFF" fill-opacity="0.00000" id="GeodesicSegment-LatLong" style="stroke:#181818;stroke-width:1;stroke-dasharray:7.0,7.0;"/></g><!--reverse link GeodesicSegment to Angle--><g id="link_GeodesicSegment_Angle"><path codeLine="64" d="M259.9444,212.5693 C286.4344,234.6693 305.41,252.452 329,278.212 C341.75,292.142 354.1,308.782 364.36,323.832 " fill="#FFFFFF" fill-opacity="0.00000" id="GeodesicSegment-backto-Angle" style="stroke:#181818;stroke-width:1;"/><polygon fill="#181818" points="250.73,204.882,252.7747,211.7971,259.9444,212.5693,257.8996,205.6542,250.73,204.882" style="stroke:#181818;stroke-width:1;"/></g><!--link GeodesicSegment to Degrees--><g id="link_GeodesicSegment_Degrees"><path codeLine="65" d="M250.7,166.532 C364.9,205.202 549.07,268.412 562,278.212 C584.65,295.382 602.26,323.212 612.83,342.982 " fill="#FFFFFF" fill-opacity="0.00000" id="GeodesicSegment-Degrees" style="stroke:#181818;stroke-width:1;stroke-dasharray:7.0,7.0;"/></g><!--reverse link GeodesicSegment to Radians--><g id="link_GeodesicSegment_Radians"><path codeLine="66" d="M261.6704,172.2169 C320.8604,196.0669 386.52,228.732 443,278.212 C463.87,296.502 480.89,323.592 491.39,342.892 " fill="#FFFFFF" fill-opacity="0.00000" id="GeodesicSegment-backto-Radians" style="stroke:#181818;stroke-width:1;"/><polygon fill="#181818" points="250.54,167.732,254.6102,173.6846,261.6704,172.2169,257.6002,166.2643,250.54,167.732" style="stroke:#181818;stroke-width:1;"/></g><!--link GeodesicSegment to Metres--><g id="link_GeodesicSegment_Metres"><path codeLine="67" d="M241.26,226.502 C251.82,242.752 261.04,260.262 267,278.212 C294.23,360.152 282.97,387.632 267,472.482 C260.17,508.752 242.95,548.052 231.1,572.222 " fill="#FFFFFF" fill-opacity="0.00000" id="GeodesicSegment-Metres" style="stroke:#181818;stroke-width:1;stroke-dasharray:7.0,7.0;"/></g><!--reverse link Ellipsoid to Metres--><g id="link_Ellipsoid_Metres"><path codeLine="68" d="M169.4977,459.9734 C185.4477,503.6334 199.89,543.182 210.47,572.122 " fill="#FFFFFF" fill-opacity="0.00000" id="Ellipsoid-backto-Metres" style="stroke:#181818;stroke-width:1;"/><polygon fill="#181818" points="165.38,448.702,163.6817,455.7103,169.4977,459.9734,171.196,452.9651,165.38,448.702" style="stroke:#181818;stroke-width:1;"/></g><!--reverse link LatLong to Degrees--><g id="link_LatLong_Degrees"><path codeLine="69" d="M517.6455,189.071 C546.6955,237.471 586.97,304.572 610.05,343.022 " fill="#FFFFFF" fill-opacity="0.00000" id="LatLong-backto-Degrees" style="stroke:#181818;stroke-width:1;"/><polygon fill="#181818" points="511.47,178.782,511.1281,185.985,517.6455,189.071,517.9874,181.868,511.47,178.782" style="stroke:#181818;stroke-width:1;"/><text fill="#000000" font-family="sans-serif" font-size="13" lengthAdjust="spacing" textLength="7.436" x="598.6336" y="331.6147">2</text></g><!--SRC=[bLDDJ-Cm4BtdLuoub0yrGjLoyGq1ub8ubDLUhS4UN4kE7TaEMXRntt6RRkEu7zlreMfctioyDy-UtBdsmskrZ70kBc1sFVinJJyty4iZ_2InjCuuzG7pA6kuDGOMAso01GNoxoJhgff0rD4GF1YZs-2qX3k38S2zHkMngQf04Ims55eKz48jUepE0sDL1UbiK_2kaTEsosUVNXsnRlX8JbBGueLKGpOc06Hd2gyKiGWPPui8_j5bn0jkoAguB19RAgFu5HYCF3LMvnT5Gg0HNSeInoWvMib_HvcXlaf53vdOWbJn_LQCUjqPxYpnHjikyBSZn5RBRoXwdJHZygsJT0IjLXkF-x6PcD8ODvqEqgeCFBOwj4lob4dlbpB7E4_RtLb9ud34tQ_3Sz0gGxlNwNOJ7lSCkhmnmeLzello6kv9UQ81ClcRgM61KgCDXvbrLgUtD50Oia4Np7hEJyaw2hcMGVlutz3AEiiFj7l6BhcBvacRVtVTA1WzKiPAx-lCMiOsNfvIU9akpTOjnjPBF6bWdPVbRlpVmDoiqqQktMCiQCPwN_RL3ayypJjULInjJV1iThP7tZS0]--></g></svg>