<svg xmlns="http://www.w3.org/2000/svg" xmlns:xlink="http://www.w3.org/1999/xlink" contentStyleType="text/css" height="330px" preserveAspectRatio="none" style="width:849px;height:330px;background:#FFFFFF;" version="1.1" viewBox="0 0 849 330" width="849px" zoomAndPan="magnify"><defs/><g><!--cluster C++--><g id="cluster_C++"><path d="M115.76,71 L142.76,71 A3.75,3.75 0 0 1 145.26,73.5 L152.26,94.6094 L548.76,94.6094 A2.5,2.5 0 0 1 551.26,97.1094 L551.26,320.5 A2.5,2.5 0 0 1 548.76,323 L115.76,323 A2.5,2.5 0 0 1 113.26,320.5 L113.26,73.5 A2.5,2.5 0 0 1 115.76,71 " fill="none" style="stroke:#000000;stroke-width:1.5;"/><line style="stroke:#000000;stroke-width:1.5;" x1="113.26" x2="152.26" y1="94.6094" y2="94.6094"/><text fill="#000000" font-family="sans-serif" font-size="14" font-weight="bold" lengthAdjust="spacing" textLength="26" x="117.26" y="87.5332">C++</text></g><!--cluster test--><g id="cluster_test"><path d="M391.76,115 L419.76,115 A3.75,3.75 0 0 1 422.26,117.5 L429.26,138.6094 L524.76,138.6094 A2.5,2.5 0 0 1 527.26,141.1094 L527.26,212.5 A2.5,2.5 0 0 1 524.76,215 L391.76,215 A2.5,2.5 0 0 1 389.26,212.5 L389.26,117.5 A2.5,2.5 0 0 1 391.76,115 " fill="none" style="stroke:#000000;stroke-width:1.5;"/><line style="stroke:#000000;stroke-width:1.5;" x1="389.26" x2="429.26" y1="138.6094" y2="138.6094"/><text fill="#000000" font-family="sans-serif" font-size="14" font-weight="bold" lengthAdjust="spacing" textLength="27" x="393.26" y="131.5332">test</text></g><!--cluster python--><g id="cluster_python"><path d="M577.76,71 L626.76,71 A3.75,3.75 0 0 1 629.26,73.5 L636.26,94.6094 L839.76,94.6094 A2.5,2.5 0 0 1 842.26,97.1094 L842.26,320.5 A2.5,2.5 0 0 1 839.76,323 L577.76,323 A2.5,2.5 0 0 1 575.26,320.5 L575.26,73.5 A2.5,2.5 0 0 1 577.76,71 " fill="none" style="stroke:#000000;stroke-width:1.5;"/><line style="stroke:#000000;stroke-width:1.5;" x1="575.26" x2="636.26" y1="94.6094" y2="94.6094"/><text fill="#000000" font-family="sans-serif" font-size="14" font-weight="bold" lengthAdjust="spacing" textLength="48" x="579.26" y="87.5332">python</text></g><!--cluster test--><g id="cluster_test"><path d="M710.76,115 L738.76,115 A3.75,3.75 0 0 1 741.26,117.5 L748.26,138.6094 L815.76,138.6094 A2.5,2.5 0 0 1 818.26,141.1094 L818.26,212.5 A2.5,2.5 0 0 1 815.76,215 L710.76,215 A2.5,2.5 0 0 1 708.26,212.5 L708.26,117.5 A2.5,2.5 0 0 1 710.76,115 " fill="none" style="stroke:#000000;stroke-width:1.5;"/><line style="stroke:#000000;stroke-width:1.5;" x1="708.26" x2="748.26" y1="138.6094" y2="138.6094"/><text fill="#000000" font-family="sans-serif" font-size="14" font-weight="bold" lengthAdjust="spacing" textLength="27" x="712.26" y="131.5332">test</text></g><!--entity eigen--><g id="elem_eigen"><rect fill="#F1F1F1" height="47.6094" rx="2.5" ry="2.5" style="stroke:#181818;stroke-width:0.5;" width="75" x="359.76" y="259"/><rect fill="#F1F1F1" height="10" style="stroke:#181818;stroke-width:0.5;" width="15" x="414.76" y="264"/><rect fill="#F1F1F1" height="2" style="stroke:#181818;stroke-width:0.5;" width="4" x="412.76" y="266"/><rect fill="#F1F1F1" height="2" style="stroke:#181818;stroke-width:0.5;" width="4" x="412.76" y="270"/><text fill="#000000" font-family="sans-serif" font-size="14" lengthAdjust="spacing" textLength="35" x="374.76" y="293.5332">eigen</text></g><!--entity via_angle--><g id="elem_via_angle"><rect fill="#F1F1F1" height="47.6094" rx="2.5" ry="2.5" style="stroke:#181818;stroke-width:0.5;" width="101" x="129.76" y="259"/><rect fill="#F1F1F1" height="10" style="stroke:#181818;stroke-width:0.5;" width="15" x="210.76" y="264"/><rect fill="#F1F1F1" height="2" style="stroke:#181818;stroke-width:0.5;" width="4" x="208.76" y="266"/><rect fill="#F1F1F1" height="2" style="stroke:#181818;stroke-width:0.5;" width="4" x="208.76" y="270"/><text fill="#000000" font-family="sans-serif" font-size="14" lengthAdjust="spacing" textLength="61" x="144.76" y="293.5332">via_angle</text></g><!--entity via_sphere--><g id="elem_via_sphere"><rect fill="#F1F1F1" height="47.6094" rx="2.5" ry="2.5" style="stroke:#181818;stroke-width:0.5;" width="110" x="129.26" y="151"/><rect fill="#F1F1F1" height="10" style="stroke:#181818;stroke-width:0.5;" width="15" x="219.26" y="156"/><rect fill="#F1F1F1" height="2" style="stroke:#181818;stroke-width:0.5;" width="4" x="217.26" y="158"/><rect fill="#F1F1F1" height="2" style="stroke:#181818;stroke-width:0.5;" width="4" x="217.26" y="162"/><text fill="#000000" font-family="sans-serif" font-size="14" lengthAdjust="spacing" textLength="70" x="144.26" y="185.5332">via_sphere</text></g><!--entity via_units--><g id="elem_via_units"><rect fill="#F1F1F1" height="47.6094" rx="2.5" ry="2.5" style="stroke:#181818;stroke-width:0.5;" width="96" x="274.26" y="151"/><rect fill="#F1F1F1" height="10" style="stroke:#181818;stroke-width:0.5;" width="15" x="350.26" y="156"/><rect fill="#F1F1F1" height="2" style="stroke:#181818;stroke-width:0.5;" width="4" x="348.26" y="158"/><rect fill="#F1F1F1" height="2" style="stroke:#181818;stroke-width:0.5;" width="4" x="348.26" y="162"/><text fill="#000000" font-family="sans-serif" font-size="14" lengthAdjust="spacing" textLength="56" x="289.26" y="185.5332">via_units</text></g><!--entity gsl--><g id="elem_gsl"><rect fill="#F1F1F1" height="47.6094" rx="2.5" ry="2.5" style="stroke:#181818;stroke-width:0.5;" width="58" x="266.26" y="259"/><rect fill="#F1F1F1" height="10" style="stroke:#181818;stroke-width:0.5;" width="15" x="304.26" y="264"/><rect fill="#F1F1F1" height="2" style="stroke:#181818;stroke-width:0.5;" width="4" x="302.26" y="266"/><rect fill="#F1F1F1" height="2" style="stroke:#181818;stroke-width:0.5;" width="4" x="302.26" y="270"/><text fill="#000000" font-family="sans-serif" font-size="14" lengthAdjust="spacing" textLength="18" x="281.26" y="293.5332">gsl</text></g><!--entity boost_test--><g id="elem_boost_test"><rect fill="#F1F1F1" height="47.6094" rx="2.5" ry="2.5" style="stroke:#181818;stroke-width:0.5;" width="106" x="405.26" y="151"/><rect fill="#F1F1F1" height="10" style="stroke:#181818;stroke-width:0.5;" width="15" x="491.26" y="156"/><rect fill="#F1F1F1" height="2" style="stroke:#181818;stroke-width:0.5;" width="4" x="489.26" y="158"/><rect fill="#F1F1F1" height="2" style="stroke:#181818;stroke-width:0.5;" width="4" x="489.26" y="162"/><text fill="#000000" font-family="sans-serif" font-size="14" lengthAdjust="spacing" textLength="66" x="420.26" y="185.5332">boost_test</text></g><!--entity pybind11--><g id="elem_pybind11"><rect fill="#F1F1F1" height="47.6094" rx="2.5" ry="2.5" style="stroke:#181818;stroke-width:0.5;" width="98" x="591.26" y="151"/><rect fill="#F1F1F1" height="10" style="stroke:#181818;stroke-width:0.5;" width="15" x="669.26" y="156"/><rect fill="#F1F1F1" height="2" style="stroke:#181818;stroke-width:0.5;" width="4" x="667.26" y="158"/><rect fill="#F1F1F1" height="2" style="stroke:#181818;stroke-width:0.5;" width="4" x="667.26" y="162"/><text fill="#000000" font-family="sans-serif" font-size="14" lengthAdjust="spacing" textLength="58" x="606.26" y="185.5332">pybind11</text></g><!--entity numpy--><g id="elem_numpy"><rect fill="#F1F1F1" height="47.6094" rx="2.5" ry="2.5" style="stroke:#181818;stroke-width:0.5;" width="82" x="599.26" y="259"/><rect fill="#F1F1F1" height="10" style="stroke:#181818;stroke-width:0.5;" width="15" x="661.26" y="264"/><rect fill="#F1F1F1" height="2" style="stroke:#181818;stroke-width:0.5;" width="4" x="659.26" y="266"/><rect fill="#F1F1F1" height="2" style="stroke:#181818;stroke-width:0.5;" width="4" x="659.26" y="270"/><text fill="#000000" font-family="sans-serif" font-size="14" lengthAdjust="spacing" textLength="42" x="614.26" y="293.5332">numpy</text></g><!--entity pytest--><g id="elem_pytest"><rect fill="#F1F1F1" height="47.6094" rx="2.5" ry="2.5" style="stroke:#181818;stroke-width:0.5;" width="78" x="724.26" y="151"/><rect fill="#F1F1F1" height="10" style="stroke:#181818;stroke-width:0.5;" width="15" x="782.26" y="156"/><rect fill="#F1F1F1" height="2" style="stroke:#181818;stroke-width:0.5;" width="4" x="780.26" y="158"/><rect fill="#F1F1F1" height="2" style="stroke:#181818;stroke-width:0.5;" width="4" x="780.26" y="162"/><text fill="#000000" font-family="sans-serif" font-size="14" lengthAdjust="spacing" textLength="38" x="739.26" y="185.5332">pytest</text></g><!--entity via_ellipsoid--><g id="elem_via_ellipsoid"><rect fill="#98FB98" height="47.6094" rx="2.5" ry="2.5" style="stroke:#181818;stroke-width:0.5;" width="117" x="125.76" y="7"/><rect fill="#98FB98" height="10" style="stroke:#181818;stroke-width:0.5;" width="15" x="222.76" y="12"/><rect fill="#98FB98" height="2" style="stroke:#181818;stroke-width:0.5;" width="4" x="220.76" y="14"/><rect fill="#98FB98" height="2" style="stroke:#181818;stroke-width:0.5;" width="4" x="220.76" y="18"/><text fill="#000000" font-family="sans-serif" font-size="14" lengthAdjust="spacing" textLength="77" x="140.76" y="41.5332">via_ellipsoid</text></g><!--link pybind11 to numpy--><g id="link_pybind11_numpy"><path d="M640.26,199 C640.26,216.66 640.26,240.94 640.26,258.68 " fill="none" id="pybind11-numpy" style="stroke:#181818;stroke-width:1.0;"/></g><!--link via_ellipsoid to via_sphere--><g id="link_via_ellipsoid_via_sphere"><path d="M184.26,55.13 C184.26,81.54 184.26,124.48 184.26,150.88 " fill="none" id="via_ellipsoid-via_sphere" style="stroke:#181818;stroke-width:1.0;"/></g><!--link via_ellipsoid to via_angle--><g id="link_via_ellipsoid_via_angle"><path d="M125.48,38.36 C94.06,43.11 59.88,50.9 50.26,63 C6,118.66 11.74,163.22 50.26,223 C67.71,250.09 100.96,264.88 129.46,272.88 " fill="none" id="via_ellipsoid-via_angle" style="stroke:#181818;stroke-width:1.0;"/></g><!--link via_ellipsoid to via_units--><g id="link_via_ellipsoid_via_units"><path d="M242.9,52.76 C248.03,55.78 252.92,59.18 257.26,63 C284.76,87.19 303.7,125.94 313.76,150.67 " fill="none" id="via_ellipsoid-via_units" style="stroke:#181818;stroke-width:1.0;"/></g><!--link via_ellipsoid to pybind11--><g id="link_via_ellipsoid_pybind11"><path d="M243.03,32.58 C327.44,34.21 478.22,40.31 527.26,63 C569.19,82.4 604.75,124.14 624.24,150.55 " fill="none" id="via_ellipsoid-pybind11" style="stroke:#181818;stroke-width:1.0;"/></g><!--link via_ellipsoid to gsl--><g id="link_via_ellipsoid_gsl"><path d="M125.68,49.57 C120.43,53.23 115.78,57.66 112.26,63 C73.16,122.4 68.88,166.65 112.26,223 C150.4,272.55 189.67,237.15 248.26,259 C254.13,261.19 260.25,263.87 266.06,266.62 " fill="none" id="via_ellipsoid-gsl" style="stroke:#181818;stroke-width:1.0;"/></g><!--link via_sphere to via_angle--><g id="link_via_sphere_via_angle"><path d="M183.39,199 C182.72,216.66 181.81,240.94 181.14,258.68 " fill="none" id="via_sphere-via_angle" style="stroke:#181818;stroke-width:1.0;"/></g><!--link via_sphere to eigen--><g id="link_via_sphere_eigen"><path d="M217.33,199.01 C229.59,207.08 243.79,215.9 257.26,223 C259.7,224.29 318.88,249.15 359.51,266.18 " fill="none" id="via_sphere-eigen" style="stroke:#181818;stroke-width:1.0;"/></g><!--link via_sphere to gsl--><g id="link_via_sphere_gsl"><path d="M208.34,199 C226.83,216.66 252.26,240.94 270.84,258.68 " fill="none" id="via_sphere-gsl" style="stroke:#181818;stroke-width:1.0;"/></g><!--link via_angle to gsl--><g id="link_via_angle_gsl"><path d="M231.02,283 C242.73,283 254.44,283 266.15,283 " fill="none" id="via_angle-gsl" style="stroke:#181818;stroke-width:1.0;"/></g><!--SRC=[bL8zQyCm4DtzAmuwf2KaDA5JjXAwTKfBrw1OXomYduHq2PYI_rxRTIqhKOPgCEBUnxtJURQrhl5QLGoFvHEidzSlyAK5V69PaJLMDV3ESWclni2kemNOOK1_HhaiYXcmPeFmPensmMe94XsIH2erXg88o42Ynk14YH_eX1TiFMms1RIdjBMpXCHmrcAFeyU34mQLHwIUrcgFGY5ivtFuxYkf6BKQcBUcWfJ1ErXm5Vfxu8aqXmocWXchVy4O0q-IfOA3jO7t7MKaNA2_NfBfNCELfUo0hZbeagjL1g9JxPh_1MeR9M6YUcW3YyN4znVlF-cMMjRLAsRnk84i7D_v1ax6laB7FSG8dIJJCOBnFqdhKwjUEzZ_0000]--></g></svg>