<svg xmlns="http://www.w3.org/2000/svg" xmlns:xlink="http://www.w3.org/1999/xlink" contentStyleType="text/css" height="642px" preserveAspectRatio="none" style="width:690px;height:642px;background:#FFFFFF;" version="1.1" viewBox="0 0 690 642" width="690px" zoomAndPan="magnify"><defs/><g><!--cluster via_ellipsoid--><g id="cluster_via_ellipsoid"><path d="M17.5,6 L107.5,6 A3.75,3.75 0 0 1 110,8.5 L117,29.6094 L266.5,29.6094 A2.5,2.5 0 0 1 269,32.1094 L269,440.5 A2.5,2.5 0 0 1 266.5,443 L17.5,443 A2.5,2.5 0 0 1 15,440.5 L15,8.5 A2.5,2.5 0 0 1 17.5,6 " fill="none" style="stroke:#000000;stroke-width:1.5;"/><line style="stroke:#000000;stroke-width:1.5;" x1="15" x2="117" y1="29.6094" y2="29.6094"/><text fill="#000000" font-family="sans-serif" font-size="14" font-weight="bold" lengthAdjust="spacing" textLength="89" x="19" y="22.5332">via_ellipsoid</text></g><!--cluster via_sphere--><g id="cluster_via_sphere"><path d="M431.5,50 L511.5,50 A3.75,3.75 0 0 1 514,52.5 L521,73.6094 L542.5,73.6094 A2.5,2.5 0 0 1 545,76.1094 L545,182.5 A2.5,2.5 0 0 1 542.5,185 L431.5,185 A2.5,2.5 0 0 1 429,182.5 L429,52.5 A2.5,2.5 0 0 1 431.5,50 " fill="none" style="stroke:#000000;stroke-width:1.5;"/><line style="stroke:#000000;stroke-width:1.5;" x1="429" x2="521" y1="73.6094" y2="73.6094"/><text fill="#000000" font-family="sans-serif" font-size="14" font-weight="bold" lengthAdjust="spacing" textLength="79" x="433" y="66.5332">via_sphere</text></g><!--cluster via_angle--><g id="cluster_via_angle"><path d="M345.5,272.5 L414.5,272.5 A3.75,3.75 0 0 1 417,275 L424,296.1094 L680.5,296.1094 A2.5,2.5 0 0 1 683,298.6094 L683,405 A2.5,2.5 0 0 1 680.5,407.5 L345.5,407.5 A2.5,2.5 0 0 1 343,405 L343,275 A2.5,2.5 0 0 1 345.5,272.5 " fill="none" style="stroke:#000000;stroke-width:1.5;"/><line style="stroke:#000000;stroke-width:1.5;" x1="343" x2="424" y1="296.1094" y2="296.1094"/><text fill="#000000" font-family="sans-serif" font-size="14" font-weight="bold" lengthAdjust="spacing" textLength="68" x="347" y="289.0332">via_angle</text></g><!--cluster via_units--><g id="cluster_via_units"><path d="M8.5,467 L73.5,467 A3.75,3.75 0 0 1 76,469.5 L83,490.6094 L329.5,490.6094 A2.5,2.5 0 0 1 332,493.1094 L332,632.5 A2.5,2.5 0 0 1 329.5,635 L8.5,635 A2.5,2.5 0 0 1 6,632.5 L6,469.5 A2.5,2.5 0 0 1 8.5,467 " fill="none" style="stroke:#000000;stroke-width:1.5;"/><line style="stroke:#000000;stroke-width:1.5;" x1="6" x2="83" y1="490.6094" y2="490.6094"/><text fill="#000000" font-family="sans-serif" font-size="14" font-weight="bold" lengthAdjust="spacing" textLength="64" x="10" y="483.5332">via_units</text></g><!--cluster si--><g id="cluster_si"><path d="M202.5,511 L215.5,511 A3.75,3.75 0 0 1 218,513.5 L225,534.6094 L305.5,534.6094 A2.5,2.5 0 0 1 308,537.1094 L308,608.5 A2.5,2.5 0 0 1 305.5,611 L202.5,611 A2.5,2.5 0 0 1 200,608.5 L200,513.5 A2.5,2.5 0 0 1 202.5,511 " fill="none" style="stroke:#000000;stroke-width:1.5;"/><line style="stroke:#000000;stroke-width:1.5;" x1="200" x2="225" y1="534.6094" y2="534.6094"/><text fill="#000000" font-family="sans-serif" font-size="14" font-weight="bold" lengthAdjust="spacing" textLength="12" x="204" y="527.5332">si</text></g><!--cluster non_si--><g id="cluster_non_si"><path d="M32.5,511 L80.5,511 A3.75,3.75 0 0 1 83,513.5 L90,534.6094 L173.5,534.6094 A2.5,2.5 0 0 1 176,537.1094 L176,608.5 A2.5,2.5 0 0 1 173.5,611 L32.5,611 A2.5,2.5 0 0 1 30,608.5 L30,513.5 A2.5,2.5 0 0 1 32.5,511 " fill="none" style="stroke:#000000;stroke-width:1.5;"/><line style="stroke:#000000;stroke-width:1.5;" x1="30" x2="90" y1="534.6094" y2="534.6094"/><text fill="#000000" font-family="sans-serif" font-size="14" font-weight="bold" lengthAdjust="spacing" textLength="47" x="34" y="527.5332">non_si</text></g><!--class Geodesic--><g id="elem_Geodesic"><rect codeLine="10" fill="#F1F1F1" height="171.2656" id="Geodesic" rx="2.5" ry="2.5" style="stroke:#181818;stroke-width:0.5;" width="178" x="75" y="42"/><ellipse cx="129.75" cy="58" fill="#ADD1B2" rx="11" ry="11" style="stroke:#181818;stroke-width:1.0;"/><path d="M132.5156,53.875 Q132.6719,53.6563 132.8594,53.5469 Q133.0469,53.4375 133.2656,53.4375 Q133.6406,53.4375 133.875,53.6953 Q134.1094,53.9531 134.1094,54.5625 L134.1094,56.0156 Q134.1094,56.625 133.875,56.8906 Q133.6406,57.1563 133.2656,57.1563 Q132.9219,57.1563 132.7188,56.9531 Q132.5156,56.7656 132.4063,56.25 Q132.3594,55.8906 132.1719,55.7031 Q131.8438,55.3281 131.2344,55.1094 Q130.625,54.8906 130,54.8906 Q129.2344,54.8906 128.6016,55.2188 Q127.9688,55.5469 127.4766,56.2969 Q126.9844,57.0469 126.9844,58.0781 L126.9844,59.1719 Q126.9844,60.4063 127.875,61.2266 Q128.7656,62.0469 130.3594,62.0469 Q131.2969,62.0469 131.9531,61.7969 Q132.3438,61.6406 132.7656,61.2031 Q133.0313,60.9375 133.1797,60.8594 Q133.3281,60.7813 133.5313,60.7813 Q133.8594,60.7813 134.1172,61.0391 Q134.375,61.2969 134.375,61.6406 Q134.375,61.9844 134.0313,62.3906 Q133.5313,62.9688 132.7344,63.2969 Q131.6563,63.75 130.3594,63.75 Q128.8438,63.75 127.6406,63.125 Q126.6563,62.625 125.9688,61.5547 Q125.2813,60.4844 125.2813,59.2031 L125.2813,58.0469 Q125.2813,56.7188 125.8984,55.5703 Q126.5156,54.4219 127.6094,53.8047 Q128.7031,53.1875 129.9375,53.1875 Q130.6719,53.1875 131.3203,53.3516 Q131.9688,53.5156 132.5156,53.875 Z " fill="#000000"/><text fill="#000000" font-family="sans-serif" font-size="14" lengthAdjust="spacing" textLength="60" x="150.25" y="63.7285">Geodesic</text><line style="stroke:#181818;stroke-width:0.5;" x1="76" x2="252" y1="74" y2="74"/><rect fill="none" height="6" style="stroke:#C82930;stroke-width:1.0;" width="6" x="83" y="85.3047"/><text fill="#000000" font-family="sans-serif" font-size="14" lengthAdjust="spacing" textLength="28" x="95" y="92.5332">beta</text><rect fill="none" height="6" style="stroke:#C82930;stroke-width:1.0;" width="6" x="83" y="102.9141"/><text fill="#000000" font-family="sans-serif" font-size="14" lengthAdjust="spacing" textLength="19" x="95" y="110.1426">lon</text><rect fill="none" height="6" style="stroke:#C82930;stroke-width:1.0;" width="6" x="83" y="120.5234"/><text fill="#000000" font-family="sans-serif" font-size="14" lengthAdjust="spacing" textLength="17" x="95" y="127.752">azi</text><rect fill="none" height="6" style="stroke:#C82930;stroke-width:1.0;" width="6" x="83" y="138.1328"/><text fill="#000000" font-family="sans-serif" font-size="14" lengthAdjust="spacing" textLength="69" x="95" y="145.3613">aux_length</text><rect fill="none" height="6" style="stroke:#C82930;stroke-width:1.0;" width="6" x="83" y="155.7422"/><text fill="#000000" font-family="sans-serif" font-size="14" lengthAdjust="spacing" textLength="51" x="95" y="162.9707">ellipsoid</text><line style="stroke:#181818;stroke-width:0.5;" x1="76" x2="252" y1="170.0469" y2="170.0469"/><ellipse cx="86" cy="184.3516" fill="#84BE84" rx="3" ry="3" style="stroke:#038048;stroke-width:1.0;"/><text fill="#000000" font-family="sans-serif" font-size="14" lengthAdjust="spacing" textLength="60" x="95" y="188.5801">lat_long()</text><ellipse cx="86" cy="201.9609" fill="#84BE84" rx="3" ry="3" style="stroke:#038048;stroke-width:1.0;"/><text fill="#000000" font-family="sans-serif" font-size="14" lengthAdjust="spacing" textLength="152" x="95" y="206.1895">calculate_atd_and_xtd()</text></g><!--class Ellipsoid--><g id="elem_Ellipsoid"><rect codeLine="20" fill="#F1F1F1" height="153.6563" id="Ellipsoid" rx="2.5" ry="2.5" style="stroke:#181818;stroke-width:0.5;" width="221" x="31.5" y="273"/><ellipse cx="111.75" cy="289" fill="#ADD1B2" rx="11" ry="11" style="stroke:#181818;stroke-width:1.0;"/><path d="M114.5156,284.875 Q114.6719,284.6563 114.8594,284.5469 Q115.0469,284.4375 115.2656,284.4375 Q115.6406,284.4375 115.875,284.6953 Q116.1094,284.9531 116.1094,285.5625 L116.1094,287.0156 Q116.1094,287.625 115.875,287.8906 Q115.6406,288.1563 115.2656,288.1563 Q114.9219,288.1563 114.7188,287.9531 Q114.5156,287.7656 114.4063,287.25 Q114.3594,286.8906 114.1719,286.7031 Q113.8438,286.3281 113.2344,286.1094 Q112.625,285.8906 112,285.8906 Q111.2344,285.8906 110.6016,286.2188 Q109.9688,286.5469 109.4766,287.2969 Q108.9844,288.0469 108.9844,289.0781 L108.9844,290.1719 Q108.9844,291.4063 109.875,292.2266 Q110.7656,293.0469 112.3594,293.0469 Q113.2969,293.0469 113.9531,292.7969 Q114.3438,292.6406 114.7656,292.2031 Q115.0313,291.9375 115.1797,291.8594 Q115.3281,291.7813 115.5313,291.7813 Q115.8594,291.7813 116.1172,292.0391 Q116.375,292.2969 116.375,292.6406 Q116.375,292.9844 116.0313,293.3906 Q115.5313,293.9688 114.7344,294.2969 Q113.6563,294.75 112.3594,294.75 Q110.8438,294.75 109.6406,294.125 Q108.6563,293.625 107.9688,292.5547 Q107.2813,291.4844 107.2813,290.2031 L107.2813,289.0469 Q107.2813,287.7188 107.8984,286.5703 Q108.5156,285.4219 109.6094,284.8047 Q110.7031,284.1875 111.9375,284.1875 Q112.6719,284.1875 113.3203,284.3516 Q113.9688,284.5156 114.5156,284.875 Z " fill="#000000"/><text fill="#000000" font-family="sans-serif" font-size="14" lengthAdjust="spacing" textLength="52" x="132.25" y="294.7285">Ellipsoid</text><line style="stroke:#181818;stroke-width:0.5;" x1="32.5" x2="251.5" y1="305" y2="305"/><rect fill="none" height="6" style="stroke:#C82930;stroke-width:1.0;" width="6" x="39.5" y="316.3047"/><text fill="#000000" font-family="sans-serif" font-size="14" lengthAdjust="spacing" textLength="8" x="51.5" y="323.5332">a</text><rect fill="none" height="6" style="stroke:#C82930;stroke-width:1.0;" width="6" x="39.5" y="333.9141"/><text fill="#000000" font-family="sans-serif" font-size="14" lengthAdjust="spacing" textLength="4" x="51.5" y="341.1426">f</text><line style="stroke:#181818;stroke-width:0.5;" x1="32.5" x2="251.5" y1="348.2188" y2="348.2188"/><ellipse cx="42.5" cy="362.5234" fill="#84BE84" rx="3" ry="3" style="stroke:#038048;stroke-width:1.0;"/><text fill="#000000" font-family="sans-serif" font-size="14" lengthAdjust="spacing" textLength="18" x="51.5" y="366.752">b()</text><ellipse cx="42.5" cy="380.1328" fill="#84BE84" rx="3" ry="3" style="stroke:#038048;stroke-width:1.0;"/><text fill="#000000" font-family="sans-serif" font-size="14" lengthAdjust="spacing" textLength="91" x="51.5" y="384.3613">one_minus_f()</text><ellipse cx="42.5" cy="397.7422" fill="#84BE84" rx="3" ry="3" style="stroke:#038048;stroke-width:1.0;"/><text fill="#000000" font-family="sans-serif" font-size="14" lengthAdjust="spacing" textLength="195" x="51.5" y="401.9707">calculate_parametric_latitude()</text><ellipse cx="42.5" cy="415.3516" fill="#84BE84" rx="3" ry="3" style="stroke:#038048;stroke-width:1.0;"/><text fill="#000000" font-family="sans-serif" font-size="14" lengthAdjust="spacing" textLength="182" x="51.5" y="419.5801">calculate_geodetic_latitude()</text></g><!--class LatLong--><g id="elem_LatLong"><rect codeLine="33" fill="#F1F1F1" height="83.2188" id="LatLong" rx="2.5" ry="2.5" style="stroke:#181818;stroke-width:0.5;" width="84" x="445" y="86"/><ellipse cx="460" cy="102" fill="#ADD1B2" rx="11" ry="11" style="stroke:#181818;stroke-width:1.0;"/><path d="M462.7656,97.875 Q462.9219,97.6563 463.1094,97.5469 Q463.2969,97.4375 463.5156,97.4375 Q463.8906,97.4375 464.125,97.6953 Q464.3594,97.9531 464.3594,98.5625 L464.3594,100.0156 Q464.3594,100.625 464.125,100.8906 Q463.8906,101.1563 463.5156,101.1563 Q463.1719,101.1563 462.9688,100.9531 Q462.7656,100.7656 462.6563,100.25 Q462.6094,99.8906 462.4219,99.7031 Q462.0938,99.3281 461.4844,99.1094 Q460.875,98.8906 460.25,98.8906 Q459.4844,98.8906 458.8516,99.2188 Q458.2188,99.5469 457.7266,100.2969 Q457.2344,101.0469 457.2344,102.0781 L457.2344,103.1719 Q457.2344,104.4063 458.125,105.2266 Q459.0156,106.0469 460.6094,106.0469 Q461.5469,106.0469 462.2031,105.7969 Q462.5938,105.6406 463.0156,105.2031 Q463.2813,104.9375 463.4297,104.8594 Q463.5781,104.7813 463.7813,104.7813 Q464.1094,104.7813 464.3672,105.0391 Q464.625,105.2969 464.625,105.6406 Q464.625,105.9844 464.2813,106.3906 Q463.7813,106.9688 462.9844,107.2969 Q461.9063,107.75 460.6094,107.75 Q459.0938,107.75 457.8906,107.125 Q456.9063,106.625 456.2188,105.5547 Q455.5313,104.4844 455.5313,103.2031 L455.5313,102.0469 Q455.5313,100.7188 456.1484,99.5703 Q456.7656,98.4219 457.8594,97.8047 Q458.9531,97.1875 460.1875,97.1875 Q460.9219,97.1875 461.5703,97.3516 Q462.2188,97.5156 462.7656,97.875 Z " fill="#000000"/><text fill="#000000" font-family="sans-serif" font-size="14" lengthAdjust="spacing" textLength="52" x="474" y="107.7285">LatLong</text><line style="stroke:#181818;stroke-width:0.5;" x1="446" x2="528" y1="118" y2="118"/><rect fill="none" height="6" style="stroke:#C82930;stroke-width:1.0;" width="6" x="453" y="129.3047"/><text fill="#000000" font-family="sans-serif" font-size="14" lengthAdjust="spacing" textLength="15" x="465" y="136.5332">lat</text><rect fill="none" height="6" style="stroke:#C82930;stroke-width:1.0;" width="6" x="453" y="146.9141"/><text fill="#000000" font-family="sans-serif" font-size="14" lengthAdjust="spacing" textLength="19" x="465" y="154.1426">lon</text><line style="stroke:#181818;stroke-width:0.5;" x1="446" x2="528" y1="161.2188" y2="161.2188"/></g><!--class Angle--><g id="elem_Angle"><rect codeLine="41" fill="#F1F1F1" height="83.2188" id="Angle" rx="2.5" ry="2.5" style="stroke:#181818;stroke-width:0.5;" width="68" x="478" y="308.5"/><ellipse cx="493" cy="324.5" fill="#ADD1B2" rx="11" ry="11" style="stroke:#181818;stroke-width:1.0;"/><path d="M495.7656,320.375 Q495.9219,320.1563 496.1094,320.0469 Q496.2969,319.9375 496.5156,319.9375 Q496.8906,319.9375 497.125,320.1953 Q497.3594,320.4531 497.3594,321.0625 L497.3594,322.5156 Q497.3594,323.125 497.125,323.3906 Q496.8906,323.6563 496.5156,323.6563 Q496.1719,323.6563 495.9688,323.4531 Q495.7656,323.2656 495.6563,322.75 Q495.6094,322.3906 495.4219,322.2031 Q495.0938,321.8281 494.4844,321.6094 Q493.875,321.3906 493.25,321.3906 Q492.4844,321.3906 491.8516,321.7188 Q491.2188,322.0469 490.7266,322.7969 Q490.2344,323.5469 490.2344,324.5781 L490.2344,325.6719 Q490.2344,326.9063 491.125,327.7266 Q492.0156,328.5469 493.6094,328.5469 Q494.5469,328.5469 495.2031,328.2969 Q495.5938,328.1406 496.0156,327.7031 Q496.2813,327.4375 496.4297,327.3594 Q496.5781,327.2813 496.7813,327.2813 Q497.1094,327.2813 497.3672,327.5391 Q497.625,327.7969 497.625,328.1406 Q497.625,328.4844 497.2813,328.8906 Q496.7813,329.4688 495.9844,329.7969 Q494.9063,330.25 493.6094,330.25 Q492.0938,330.25 490.8906,329.625 Q489.9063,329.125 489.2188,328.0547 Q488.5313,326.9844 488.5313,325.7031 L488.5313,324.5469 Q488.5313,323.2188 489.1484,322.0703 Q489.7656,320.9219 490.8594,320.3047 Q491.9531,319.6875 493.1875,319.6875 Q493.9219,319.6875 494.5703,319.8516 Q495.2188,320.0156 495.7656,320.375 Z " fill="#000000"/><text fill="#000000" font-family="sans-serif" font-size="14" lengthAdjust="spacing" textLength="36" x="507" y="330.2285">Angle</text><line style="stroke:#181818;stroke-width:0.5;" x1="479" x2="545" y1="340.5" y2="340.5"/><rect fill="none" height="6" style="stroke:#C82930;stroke-width:1.0;" width="6" x="486" y="351.8047"/><text fill="#000000" font-family="sans-serif" font-size="14" lengthAdjust="spacing" textLength="18" x="498" y="359.0332">sin</text><rect fill="none" height="6" style="stroke:#C82930;stroke-width:1.0;" width="6" x="486" y="369.4141"/><text fill="#000000" font-family="sans-serif" font-size="14" lengthAdjust="spacing" textLength="22" x="498" y="376.6426">cos</text><line style="stroke:#181818;stroke-width:0.5;" x1="479" x2="545" y1="383.7188" y2="383.7188"/></g><!--class Degrees--><g id="elem_Degrees"><rect fill="#F1F1F1" height="48" id="Degrees" rx="2.5" ry="2.5" style="stroke:#181818;stroke-width:0.5;" width="86" x="581" y="326"/><ellipse cx="596" cy="342" fill="#ADD1B2" rx="11" ry="11" style="stroke:#181818;stroke-width:1.0;"/><path d="M598.7656,337.875 Q598.9219,337.6563 599.1094,337.5469 Q599.2969,337.4375 599.5156,337.4375 Q599.8906,337.4375 600.125,337.6953 Q600.3594,337.9531 600.3594,338.5625 L600.3594,340.0156 Q600.3594,340.625 600.125,340.8906 Q599.8906,341.1563 599.5156,341.1563 Q599.1719,341.1563 598.9688,340.9531 Q598.7656,340.7656 598.6563,340.25 Q598.6094,339.8906 598.4219,339.7031 Q598.0938,339.3281 597.4844,339.1094 Q596.875,338.8906 596.25,338.8906 Q595.4844,338.8906 594.8516,339.2188 Q594.2188,339.5469 593.7266,340.2969 Q593.2344,341.0469 593.2344,342.0781 L593.2344,343.1719 Q593.2344,344.4063 594.125,345.2266 Q595.0156,346.0469 596.6094,346.0469 Q597.5469,346.0469 598.2031,345.7969 Q598.5938,345.6406 599.0156,345.2031 Q599.2813,344.9375 599.4297,344.8594 Q599.5781,344.7813 599.7813,344.7813 Q600.1094,344.7813 600.3672,345.0391 Q600.625,345.2969 600.625,345.6406 Q600.625,345.9844 600.2813,346.3906 Q599.7813,346.9688 598.9844,347.2969 Q597.9063,347.75 596.6094,347.75 Q595.0938,347.75 593.8906,347.125 Q592.9063,346.625 592.2188,345.5547 Q591.5313,344.4844 591.5313,343.2031 L591.5313,342.0469 Q591.5313,340.7188 592.1484,339.5703 Q592.7656,338.4219 593.8594,337.8047 Q594.9531,337.1875 596.1875,337.1875 Q596.9219,337.1875 597.5703,337.3516 Q598.2188,337.5156 598.7656,337.875 Z " fill="#000000"/><text fill="#000000" font-family="sans-serif" font-size="14" lengthAdjust="spacing" textLength="54" x="610" y="347.7285">Degrees</text><line style="stroke:#181818;stroke-width:0.5;" x1="582" x2="666" y1="358" y2="358"/><line style="stroke:#181818;stroke-width:0.5;" x1="582" x2="666" y1="366" y2="366"/></g><!--class Radians--><g id="elem_Radians"><rect fill="#F1F1F1" height="48" id="Radians" rx="2.5" ry="2.5" style="stroke:#181818;stroke-width:0.5;" width="84" x="359" y="326"/><ellipse cx="374" cy="342" fill="#ADD1B2" rx="11" ry="11" style="stroke:#181818;stroke-width:1.0;"/><path d="M376.7656,337.875 Q376.9219,337.6563 377.1094,337.5469 Q377.2969,337.4375 377.5156,337.4375 Q377.8906,337.4375 378.125,337.6953 Q378.3594,337.9531 378.3594,338.5625 L378.3594,340.0156 Q378.3594,340.625 378.125,340.8906 Q377.8906,341.1563 377.5156,341.1563 Q377.1719,341.1563 376.9688,340.9531 Q376.7656,340.7656 376.6563,340.25 Q376.6094,339.8906 376.4219,339.7031 Q376.0938,339.3281 375.4844,339.1094 Q374.875,338.8906 374.25,338.8906 Q373.4844,338.8906 372.8516,339.2188 Q372.2188,339.5469 371.7266,340.2969 Q371.2344,341.0469 371.2344,342.0781 L371.2344,343.1719 Q371.2344,344.4063 372.125,345.2266 Q373.0156,346.0469 374.6094,346.0469 Q375.5469,346.0469 376.2031,345.7969 Q376.5938,345.6406 377.0156,345.2031 Q377.2813,344.9375 377.4297,344.8594 Q377.5781,344.7813 377.7813,344.7813 Q378.1094,344.7813 378.3672,345.0391 Q378.625,345.2969 378.625,345.6406 Q378.625,345.9844 378.2813,346.3906 Q377.7813,346.9688 376.9844,347.2969 Q375.9063,347.75 374.6094,347.75 Q373.0938,347.75 371.8906,347.125 Q370.9063,346.625 370.2188,345.5547 Q369.5313,344.4844 369.5313,343.2031 L369.5313,342.0469 Q369.5313,340.7188 370.1484,339.5703 Q370.7656,338.4219 371.8594,337.8047 Q372.9531,337.1875 374.1875,337.1875 Q374.9219,337.1875 375.5703,337.3516 Q376.2188,337.5156 376.7656,337.875 Z " fill="#000000"/><text fill="#000000" font-family="sans-serif" font-size="14" lengthAdjust="spacing" textLength="52" x="388" y="347.7285">Radians</text><line style="stroke:#181818;stroke-width:0.5;" x1="360" x2="442" y1="358" y2="358"/><line style="stroke:#181818;stroke-width:0.5;" x1="360" x2="442" y1="366" y2="366"/></g><!--class Metres--><g id="elem_Metres"><rect codeLine="52" fill="#F1F1F1" height="48" id="Metres" rx="2.5" ry="2.5" style="stroke:#181818;stroke-width:0.5;" width="75" x="216.5" y="547"/><ellipse cx="231.5" cy="563" fill="#ADD1B2" rx="11" ry="11" style="stroke:#181818;stroke-width:1.0;"/><path d="M234.2656,558.875 Q234.4219,558.6563 234.6094,558.5469 Q234.7969,558.4375 235.0156,558.4375 Q235.3906,558.4375 235.625,558.6953 Q235.8594,558.9531 235.8594,559.5625 L235.8594,561.0156 Q235.8594,561.625 235.625,561.8906 Q235.3906,562.1563 235.0156,562.1563 Q234.6719,562.1563 234.4688,561.9531 Q234.2656,561.7656 234.1563,561.25 Q234.1094,560.8906 233.9219,560.7031 Q233.5938,560.3281 232.9844,560.1094 Q232.375,559.8906 231.75,559.8906 Q230.9844,559.8906 230.3516,560.2188 Q229.7188,560.5469 229.2266,561.2969 Q228.7344,562.0469 228.7344,563.0781 L228.7344,564.1719 Q228.7344,565.4063 229.625,566.2266 Q230.5156,567.0469 232.1094,567.0469 Q233.0469,567.0469 233.7031,566.7969 Q234.0938,566.6406 234.5156,566.2031 Q234.7813,565.9375 234.9297,565.8594 Q235.0781,565.7813 235.2813,565.7813 Q235.6094,565.7813 235.8672,566.0391 Q236.125,566.2969 236.125,566.6406 Q236.125,566.9844 235.7813,567.3906 Q235.2813,567.9688 234.4844,568.2969 Q233.4063,568.75 232.1094,568.75 Q230.5938,568.75 229.3906,568.125 Q228.4063,567.625 227.7188,566.5547 Q227.0313,565.4844 227.0313,564.2031 L227.0313,563.0469 Q227.0313,561.7188 227.6484,560.5703 Q228.2656,559.4219 229.3594,558.8047 Q230.4531,558.1875 231.6875,558.1875 Q232.4219,558.1875 233.0703,558.3516 Q233.7188,558.5156 234.2656,558.875 Z " fill="#000000"/><text fill="#000000" font-family="sans-serif" font-size="14" lengthAdjust="spacing" textLength="43" x="245.5" y="568.7285">Metres</text><line style="stroke:#181818;stroke-width:0.5;" x1="217.5" x2="290.5" y1="579" y2="579"/><line style="stroke:#181818;stroke-width:0.5;" x1="217.5" x2="290.5" y1="587" y2="587"/></g><!--class NauticalMiles--><g id="elem_NauticalMiles"><rect codeLine="57" fill="#F1F1F1" height="48" id="NauticalMiles" rx="2.5" ry="2.5" style="stroke:#181818;stroke-width:0.5;" width="114" x="46" y="547"/><ellipse cx="61" cy="563" fill="#ADD1B2" rx="11" ry="11" style="stroke:#181818;stroke-width:1.0;"/><path d="M63.7656,558.875 Q63.9219,558.6563 64.1094,558.5469 Q64.2969,558.4375 64.5156,558.4375 Q64.8906,558.4375 65.125,558.6953 Q65.3594,558.9531 65.3594,559.5625 L65.3594,561.0156 Q65.3594,561.625 65.125,561.8906 Q64.8906,562.1563 64.5156,562.1563 Q64.1719,562.1563 63.9688,561.9531 Q63.7656,561.7656 63.6563,561.25 Q63.6094,560.8906 63.4219,560.7031 Q63.0938,560.3281 62.4844,560.1094 Q61.875,559.8906 61.25,559.8906 Q60.4844,559.8906 59.8516,560.2188 Q59.2188,560.5469 58.7266,561.2969 Q58.2344,562.0469 58.2344,563.0781 L58.2344,564.1719 Q58.2344,565.4063 59.125,566.2266 Q60.0156,567.0469 61.6094,567.0469 Q62.5469,567.0469 63.2031,566.7969 Q63.5938,566.6406 64.0156,566.2031 Q64.2813,565.9375 64.4297,565.8594 Q64.5781,565.7813 64.7813,565.7813 Q65.1094,565.7813 65.3672,566.0391 Q65.625,566.2969 65.625,566.6406 Q65.625,566.9844 65.2813,567.3906 Q64.7813,567.9688 63.9844,568.2969 Q62.9063,568.75 61.6094,568.75 Q60.0938,568.75 58.8906,568.125 Q57.9063,567.625 57.2188,566.5547 Q56.5313,565.4844 56.5313,564.2031 L56.5313,563.0469 Q56.5313,561.7188 57.1484,560.5703 Q57.7656,559.4219 58.8594,558.8047 Q59.9531,558.1875 61.1875,558.1875 Q61.9219,558.1875 62.5703,558.3516 Q63.2188,558.5156 63.7656,558.875 Z " fill="#000000"/><text fill="#000000" font-family="sans-serif" font-size="14" lengthAdjust="spacing" textLength="82" x="75" y="568.7285">NauticalMiles</text><line style="stroke:#181818;stroke-width:0.5;" x1="47" x2="159" y1="579" y2="579"/><line style="stroke:#181818;stroke-width:0.5;" x1="47" x2="159" y1="587" y2="587"/></g><!--reverse link Geodesic to Ellipsoid--><g id="link_Geodesic_Ellipsoid"><path codeLine="29" d="M154.3648,225.0603 C152.3948,244.7403 151.52,253.62 149.59,272.9 " fill="none" id="Geodesic-backto-Ellipsoid" style="stroke:#181818;stroke-width:1.0;"/><polygon fill="none" points="155.56,213.12,150.9823,218.6917,154.3648,225.0603,158.9425,219.4886,155.56,213.12" style="stroke:#181818;stroke-width:1.0;"/></g><!--link Angle to Degrees--><g id="link_Angle_Degrees"><path codeLine="46" d="M546.12,350 C557.68,350 569.24,350 580.8,350 " fill="none" id="Angle-Degrees" style="stroke:#181818;stroke-width:1.0;stroke-dasharray:7.0,7.0;"/></g><!--link Geodesic to LatLong--><g id="link_Geodesic_LatLong"><path codeLine="63" d="M253.27,127.5 C317.03,127.5 380.79,127.5 444.54,127.5 " fill="none" id="Geodesic-LatLong" style="stroke:#181818;stroke-width:1.0;stroke-dasharray:7.0,7.0;"/></g><!--reverse link Geodesic to Angle--><g id="link_Geodesic_Angle"><path codeLine="64" d="M264.5302,157.5566 C328.0702,178.9966 401.13,211.07 461,264.5 C474.55,276.59 485.62,293.16 493.95,308.42 " fill="none" id="Geodesic-backto-Angle" style="stroke:#181818;stroke-width:1.0;"/><polygon fill="#181818" points="253.16,153.72,257.5662,159.4283,264.5302,157.5566,260.1239,151.8482,253.16,153.72" style="stroke:#181818;stroke-width:1.0;"/></g><!--link Geodesic to Degrees--><g id="link_Geodesic_Degrees"><path codeLine="65" d="M253.47,157.38 C367.37,194.36 551.08,254.87 564,264.5 C585.64,280.63 602.52,306.87 612.79,325.83 " fill="none" id="Geodesic-Degrees" style="stroke:#181818;stroke-width:1.0;stroke-dasharray:7.0,7.0;"/></g><!--reverse link Geodesic to Radians--><g id="link_Geodesic_Radians"><path codeLine="66" d="M262.6107,202.6385 C288.9407,223.7585 307.8,240.4 332,264.5 C351.33,283.74 370.74,308.07 384.03,325.68 " fill="none" id="Geodesic-backto-Radians" style="stroke:#181818;stroke-width:1.0;"/><polygon fill="#181818" points="253.25,195.13,255.4275,202.0045,262.6107,202.6385,260.4332,195.764,253.25,195.13" style="stroke:#181818;stroke-width:1.0;"/></g><!--link Geodesic to Metres--><g id="link_Geodesic_Metres"><path codeLine="67" d="M243.19,213.05 C254.19,229.1 263.82,246.52 270,264.5 C304.52,364.95 275.34,494.91 260.92,546.96 " fill="none" id="Geodesic-Metres" style="stroke:#181818;stroke-width:1.0;stroke-dasharray:7.0,7.0;"/></g><!--reverse link Ellipsoid to Metres--><g id="link_Ellipsoid_Metres"><path codeLine="68" d="M186.4751,437.9733 C207.9451,479.9433 227.62,518.42 242.09,546.71 " fill="none" id="Ellipsoid-backto-Metres" style="stroke:#181818;stroke-width:1.0;"/><polygon fill="#181818" points="181.01,427.29,180.1815,434.4533,186.4751,437.9733,187.3036,430.8099,181.01,427.29" style="stroke:#181818;stroke-width:1.0;"/></g><!--reverse link LatLong to Degrees--><g id="link_LatLong_Degrees"><path codeLine="69" d="M518.6221,179.3934 C547.2221,225.4334 586.5,288.64 609.59,325.81 " fill="none" id="LatLong-backto-Degrees" style="stroke:#181818;stroke-width:1.0;"/><polygon fill="#181818" points="512.29,169.2,512.0583,176.4074,518.6221,179.3934,518.8538,172.186,512.29,169.2" style="stroke:#181818;stroke-width:1.0;"/><text fill="#000000" font-family="sans-serif" font-size="13" lengthAdjust="spacing" textLength="7" x="598.0006" y="315.1015">2</text></g><!--SRC=[ZLDDJyCm3BttLrXSneTMeObJRWWGby5X8AwHIKndAKkg9aLyYFzEjaARPLiXfzRFzhFVIoPNhdvlk5e6E5OdC3kVNS0J8poIMbfdNFKEyw1Bk3G65kiq3mlorBoIBejY0e638RWnXcllMCELGU_Xch5gS5KKdW9ON96lKT43rTXWS0q8KHGGJm_1AwEalijd1w-FsZIy9QV9iue896SApnGm2nbdimX-S1vftwGXMuLb1lGpRCNFm62GiN5rV9812erg8qeIWvPejNmBEidwobUvIRRCXih-NpAgvnroPqcksBPUlemCjbPzHQ5X9UC_XrRJI7QrbZhipqsMwHrnq-cmKv5aRPlhwoKrbEpSgJ77C8-oxcWHoKTi_JhCWxOoAKt6Tvd1NM_F-PLHpk_RkYiluPggXcX8cVmY9InGCrf_UCBMSdn5mmW3wZcRh9lvBdf7FdqKWmRRNqChwwmyqEuUssWlcZisVtVzsM3hUGhHcryctWhnO-PenMcyBhrFGcna6wSeq_nK-7zIf8RyGRAnHWZFGdIYxoiQ7d0a6g_AXDbCTZGxshFGDm00]--></g></svg>